<?xml version="1.0" encoding="UTF-8" standalone="no"?>
<!-- Created with Inkscape (http://www.inkscape.org/) -->

<svg
   viewBox="-2 -1 83.457916 29.625719"
   version="1.1"
   id="svg1"
   xml:space="preserve"
   inkscape:version="1.4.2 (f4327f4, 2025-05-13)"
   sodipodi:docname="LA BARCA music 2.svg"
   xmlns:inkscape="http://www.inkscape.org/namespaces/inkscape"
   xmlns:sodipodi="http://sodipodi.sourceforge.net/DTD/sodipodi-0.dtd"
   xmlns="http://www.w3.org/2000/svg"
   xmlns:svg="http://www.w3.org/2000/svg"><sodipodi:namedview
     id="namedview1"
     pagecolor="#ffffff"
     bordercolor="#000000"
     borderopacity="0.25"
     inkscape:showpageshadow="2"
     inkscape:pageopacity="0.0"
     inkscape:pagecheckerboard="0"
     inkscape:deskcolor="#d1d1d1"
     inkscape:document-units="mm"
     inkscape:zoom="2.9041807"
     inkscape:cx="171.82126"
     inkscape:cy="56.298149"
     inkscape:window-width="1920"
     inkscape:window-height="1017"
     inkscape:window-x="-8"
     inkscape:window-y="32"
     inkscape:window-maximized="1"
     inkscape:current-layer="layer1" /><defs
     id="defs1" /><g
     inkscape:label="Capa 1"
     inkscape:groupmode="layer"
     id="layer1"
     transform="translate(-63.76208,-124.48499)"><g
       id="g4"
       transform="translate(-16.398773,3.2797546)"><path
         style="fill:#126fb5;fill-opacity:1;stroke-width:0.249393"
         d="m 124.4834,137.89418 c -0.12736,-0.304 0,-12.8548 0,-12.8548 l 2.84421,-0.0434 0.005,-1.04233 -2.88167,0.046 0.075,-2.77911 -1.27574,-0.0153 -0.045,2.80983 -2.73158,0.0153 v 0.96731 l 2.70156,-0.0153 0.075,12.98971 z"
         id="path3" /><path
         style="fill:#126fb5;fill-opacity:1;stroke:none"
         d="m 106.40444,144.59763 0.35278,-4.23333 c -2.8174,1.57219 -6.33976,5.03976 -6.35,8.46666 h 0.70555 l 4.23333,-5.64444 c -1.41408,5.41427 2.88445,1.21303 4.93889,-0.35278 -0.73666,1.87177 -2.8124,5.15106 0,5.99722 -0.26155,-3.07371 3.55579,-11.56068 -2.087,-6.02333 l -1.79355,1.79 m 20.4611,0.70555 c -1.60743,2.52261 -3.4522,1.89847 -5.99722,2.11667 v 0.70556 c 5.30033,1.99714 10.18769,-3.81152 2.82222,-4.58611 1.21162,-1.63904 2.67162,-1.77902 4.58611,-1.41112 l 0.35278,-0.35277 c -1.63239,-2.16873 -7.38866,-0.2385 -5.83388,2.12781 0.71678,1.09091 2.91186,1.17099 4.06999,1.39996 m 5.64445,-4.93888 -3.175,8.11388 1.41111,0.35278 c 0.33287,-2.59904 2.9605,-6.02273 1.76389,-8.46666 m -15.16945,7.05555 0.70556,1.41111 h 0.35278 l 2.82222,-7.76111 -1.41111,-0.35278 c -0.5952,1.97408 -1.37039,4.07217 -2.92831,5.50376 -0.60293,0.55403 -2.16706,1.58972 -2.64122,0.32345 -0.59489,-1.58871 1.0862,-4.19091 1.3362,-5.82721 -3.83969,1.85963 -3.50195,10.94599 1.76388,6.70278 m 23.63611,-0.70555 c -1.4867,0.33334 -3.67969,1.62269 -5.16236,0.83061 -3.10975,-1.66131 1.77625,-5.30141 3.39847,-5.7695 l 0.35278,1.41111 c 1.39753,-1.42915 -0.0716,-2.59811 -1.76606,-2.2445 -1.67155,0.34883 -3.10251,1.77203 -3.76483,3.30494 -2.15957,4.99818 4.57827,5.68593 6.942,2.46734 z"
         id="path1"
         sodipodi:nodetypes="cccccccccccccccsccccccccccsscccsccssc" /><text
         xml:space="preserve"
         style="font-size:3.175px;text-align:start;writing-mode:lr-tb;direction:ltr;text-anchor:start;white-space:pre;fill:#28455d;fill-opacity:1;stroke-width:0.264583"
         x="76.892029"
         y="88.73558"
         id="text1"
         transform="matrix(1.1590938,0,0,0.89119064,-10.201146,60.856532)"><tspan
           x="76.892029"
           y="88.73558"
           id="tspan3"><tspan
             style="font-weight:bold;font-stretch:condensed;font-size:16.9333px;font-family:Arial;-inkscape-font-specification:'Arial, Bold Condensed'"
             id="tspan2">LA B  RCA</tspan></tspan></text><path
         style="fill:#28455d;fill-opacity:1;stroke-width:0.198368"
         d="m 125.76074,139.89685 -1.35614,-4.20316 4.7e-4,2.01076 -1.13449,0.0143 -0.005,-4.13733 -1.88078,-4.27902 -1.70919,0.0256 -4.14766,10.41536 h 2.00545 l 2.89424,-7.75394 1.25342,2.35433 0.0228,0.94685 h -0.91157 l -0.91156,2.12402 1.4585,0.10236 0.86599,-1.02362 0.50137,-0.0512 0.66089,3.42913 z"
         id="path2"
         sodipodi:nodetypes="ccccccccccccccccccc" /></g></g></svg>
